<mxfile host="app.diagrams.net" modified="2024-04-06T19:46:04.127Z" agent="Mozilla/5.0 (X11; Linux x86_64; rv:124.0) Gecko/20100101 Firefox/124.0" etag="_eBTDzi0o59tfFyTnxEH" version="24.2.2" type="google">
  <diagram id="R2lEEEUBdFMjLlhIrx00" name="Page-1">
    <mxGraphModel grid="1" page="1" gridSize="10" guides="1" tooltips="1" connect="1" arrows="1" fold="1" pageScale="1" pageWidth="850" pageHeight="1100" math="0" shadow="0" extFonts="Permanent Marker^https://fonts.googleapis.com/css?family=Permanent+Marker">
      <root>
        <mxCell id="0" />
        <mxCell id="1" parent="0" />
        <mxCell id="1KkL3-F19yLGNeGOXNnM-59" style="rounded=0;orthogonalLoop=1;jettySize=auto;html=1;exitX=1;exitY=0.75;exitDx=0;exitDy=0;entryX=0;entryY=0.5;entryDx=0;entryDy=0;endArrow=none;endFill=0;" edge="1" parent="1" source="xOeI5R_pEFMg7rDfnVps-20" target="1KkL3-F19yLGNeGOXNnM-58">
          <mxGeometry relative="1" as="geometry" />
        </mxCell>
        <mxCell id="xOeI5R_pEFMg7rDfnVps-20" value="Korisnik" style="rounded=0;whiteSpace=wrap;html=1;" vertex="1" parent="1">
          <mxGeometry x="310" y="1480" width="120" height="60" as="geometry" />
        </mxCell>
        <mxCell id="1KkL3-F19yLGNeGOXNnM-6" style="edgeStyle=orthogonalEdgeStyle;rounded=0;orthogonalLoop=1;jettySize=auto;html=1;exitX=0.75;exitY=1;exitDx=0;exitDy=0;entryX=0;entryY=0.5;entryDx=0;entryDy=0;endArrow=none;endFill=0;startArrow=ERmandOne;startFill=0;" edge="1" parent="1" source="xOeI5R_pEFMg7rDfnVps-21" target="xOeI5R_pEFMg7rDfnVps-28">
          <mxGeometry relative="1" as="geometry" />
        </mxCell>
        <mxCell id="1KkL3-F19yLGNeGOXNnM-21" style="edgeStyle=orthogonalEdgeStyle;rounded=0;orthogonalLoop=1;jettySize=auto;html=1;exitX=0.5;exitY=1;exitDx=0;exitDy=0;entryX=1;entryY=0.5;entryDx=0;entryDy=0;startArrow=ERmandOne;startFill=0;endArrow=none;endFill=0;" edge="1" parent="1" source="xOeI5R_pEFMg7rDfnVps-21" target="1KkL3-F19yLGNeGOXNnM-15">
          <mxGeometry relative="1" as="geometry" />
        </mxCell>
        <mxCell id="1KkL3-F19yLGNeGOXNnM-56" style="edgeStyle=orthogonalEdgeStyle;rounded=0;orthogonalLoop=1;jettySize=auto;html=1;exitX=0.25;exitY=1;exitDx=0;exitDy=0;entryX=1;entryY=0.5;entryDx=0;entryDy=0;endArrow=none;endFill=0;startArrow=ERzeroToOne;startFill=0;" edge="1" parent="1" source="xOeI5R_pEFMg7rDfnVps-21" target="1KkL3-F19yLGNeGOXNnM-55">
          <mxGeometry relative="1" as="geometry" />
        </mxCell>
        <mxCell id="xOeI5R_pEFMg7rDfnVps-21" value="Zaposlenik" style="rounded=0;whiteSpace=wrap;html=1;" vertex="1" parent="1">
          <mxGeometry x="110" y="1700" width="120" height="60" as="geometry" />
        </mxCell>
        <mxCell id="1KkL3-F19yLGNeGOXNnM-2" style="edgeStyle=orthogonalEdgeStyle;rounded=0;orthogonalLoop=1;jettySize=auto;html=1;exitX=1;exitY=0.5;exitDx=0;exitDy=0;entryX=0.5;entryY=0;entryDx=0;entryDy=0;startArrow=ERzeroToMany;startFill=0;endArrow=none;endFill=0;" edge="1" parent="1" source="xOeI5R_pEFMg7rDfnVps-22" target="1KkL3-F19yLGNeGOXNnM-1">
          <mxGeometry relative="1" as="geometry" />
        </mxCell>
        <mxCell id="1KkL3-F19yLGNeGOXNnM-22" style="edgeStyle=orthogonalEdgeStyle;rounded=0;orthogonalLoop=1;jettySize=auto;html=1;exitX=0.75;exitY=1;exitDx=0;exitDy=0;entryX=0.5;entryY=0;entryDx=0;entryDy=0;endArrow=none;endFill=0;startArrow=ERmandOne;startFill=0;" edge="1" parent="1" source="xOeI5R_pEFMg7rDfnVps-22" target="1KkL3-F19yLGNeGOXNnM-16">
          <mxGeometry relative="1" as="geometry">
            <Array as="points">
              <mxPoint x="400" y="1850" />
              <mxPoint x="400" y="1850" />
            </Array>
          </mxGeometry>
        </mxCell>
        <mxCell id="xOeI5R_pEFMg7rDfnVps-22" value="Kupac" style="rounded=0;whiteSpace=wrap;html=1;" vertex="1" parent="1">
          <mxGeometry x="310" y="1700" width="120" height="60" as="geometry" />
        </mxCell>
        <mxCell id="xOeI5R_pEFMg7rDfnVps-26" style="edgeStyle=orthogonalEdgeStyle;rounded=0;orthogonalLoop=1;jettySize=auto;html=1;endArrow=none;endFill=0;startArrow=ERmandOne;startFill=0;" edge="1" parent="1" source="xOeI5R_pEFMg7rDfnVps-23" target="xOeI5R_pEFMg7rDfnVps-25">
          <mxGeometry relative="1" as="geometry" />
        </mxCell>
        <mxCell id="xOeI5R_pEFMg7rDfnVps-23" value="Vlasnik" style="rounded=0;whiteSpace=wrap;html=1;" vertex="1" parent="1">
          <mxGeometry x="590" y="1710" width="120" height="60" as="geometry" />
        </mxCell>
        <mxCell id="1KkL3-F19yLGNeGOXNnM-30" style="rounded=0;orthogonalLoop=1;jettySize=auto;html=1;exitX=1;exitY=0.5;exitDx=0;exitDy=0;entryX=0;entryY=0.5;entryDx=0;entryDy=0;endArrow=none;endFill=0;" edge="1" parent="1" source="xOeI5R_pEFMg7rDfnVps-24" target="xOeI5R_pEFMg7rDfnVps-58">
          <mxGeometry relative="1" as="geometry" />
        </mxCell>
        <mxCell id="1KkL3-F19yLGNeGOXNnM-33" style="rounded=0;orthogonalLoop=1;jettySize=auto;html=1;exitX=0.75;exitY=1;exitDx=0;exitDy=0;entryX=0;entryY=0;entryDx=0;entryDy=0;endArrow=none;endFill=0;" edge="1" parent="1" source="xOeI5R_pEFMg7rDfnVps-24" target="xOeI5R_pEFMg7rDfnVps-60">
          <mxGeometry relative="1" as="geometry" />
        </mxCell>
        <mxCell id="1KkL3-F19yLGNeGOXNnM-34" style="rounded=0;orthogonalLoop=1;jettySize=auto;html=1;exitX=1;exitY=0.75;exitDx=0;exitDy=0;entryX=0;entryY=0.5;entryDx=0;entryDy=0;endArrow=none;endFill=0;" edge="1" parent="1" source="xOeI5R_pEFMg7rDfnVps-24" target="xOeI5R_pEFMg7rDfnVps-61">
          <mxGeometry relative="1" as="geometry" />
        </mxCell>
        <mxCell id="1KkL3-F19yLGNeGOXNnM-36" style="rounded=0;orthogonalLoop=1;jettySize=auto;html=1;exitX=1;exitY=0.25;exitDx=0;exitDy=0;entryX=0;entryY=1;entryDx=0;entryDy=0;endArrow=none;endFill=0;" edge="1" parent="1" source="xOeI5R_pEFMg7rDfnVps-24" target="xOeI5R_pEFMg7rDfnVps-63">
          <mxGeometry relative="1" as="geometry" />
        </mxCell>
        <mxCell id="1KkL3-F19yLGNeGOXNnM-38" style="edgeStyle=orthogonalEdgeStyle;rounded=0;orthogonalLoop=1;jettySize=auto;html=1;exitX=0.25;exitY=1;exitDx=0;exitDy=0;entryX=0.5;entryY=0;entryDx=0;entryDy=0;endArrow=none;endFill=0;startArrow=ERmandOne;startFill=0;" edge="1" parent="1" source="xOeI5R_pEFMg7rDfnVps-24" target="1KkL3-F19yLGNeGOXNnM-46">
          <mxGeometry relative="1" as="geometry">
            <mxPoint x="435" y="2150" as="targetPoint" />
          </mxGeometry>
        </mxCell>
        <mxCell id="xOeI5R_pEFMg7rDfnVps-24" value="Nekretnina" style="rounded=0;whiteSpace=wrap;html=1;" vertex="1" parent="1">
          <mxGeometry x="490" y="2020" width="120" height="60" as="geometry" />
        </mxCell>
        <mxCell id="xOeI5R_pEFMg7rDfnVps-27" style="edgeStyle=orthogonalEdgeStyle;rounded=0;orthogonalLoop=1;jettySize=auto;html=1;entryX=0.75;entryY=0;entryDx=0;entryDy=0;endArrow=ERzeroToMany;endFill=0;" edge="1" parent="1" source="xOeI5R_pEFMg7rDfnVps-25" target="xOeI5R_pEFMg7rDfnVps-24">
          <mxGeometry relative="1" as="geometry">
            <Array as="points">
              <mxPoint x="650" y="1960" />
              <mxPoint x="580" y="1960" />
            </Array>
          </mxGeometry>
        </mxCell>
        <mxCell id="xOeI5R_pEFMg7rDfnVps-25" value="posjeduje" style="rhombus;whiteSpace=wrap;html=1;" vertex="1" parent="1">
          <mxGeometry x="610" y="1850" width="80" height="80" as="geometry" />
        </mxCell>
        <mxCell id="1KkL3-F19yLGNeGOXNnM-3" style="edgeStyle=orthogonalEdgeStyle;rounded=0;orthogonalLoop=1;jettySize=auto;html=1;exitX=0.5;exitY=1;exitDx=0;exitDy=0;entryX=0.25;entryY=0;entryDx=0;entryDy=0;endArrow=ERzeroToMany;endFill=0;" edge="1" parent="1" source="1KkL3-F19yLGNeGOXNnM-1" target="xOeI5R_pEFMg7rDfnVps-24">
          <mxGeometry relative="1" as="geometry" />
        </mxCell>
        <mxCell id="1KkL3-F19yLGNeGOXNnM-1" value="je zainteresiran za" style="shape=rhombus;perimeter=rhombusPerimeter;whiteSpace=wrap;html=1;align=center;" vertex="1" parent="1">
          <mxGeometry x="460" y="1820" width="120" height="60" as="geometry" />
        </mxCell>
        <mxCell id="1KkL3-F19yLGNeGOXNnM-5" style="edgeStyle=orthogonalEdgeStyle;rounded=0;orthogonalLoop=1;jettySize=auto;html=1;exitX=0.5;exitY=1;exitDx=0;exitDy=0;entryX=0;entryY=0.25;entryDx=0;entryDy=0;endArrow=ERmandOne;endFill=0;" edge="1" parent="1" source="xOeI5R_pEFMg7rDfnVps-28" target="xOeI5R_pEFMg7rDfnVps-24">
          <mxGeometry relative="1" as="geometry" />
        </mxCell>
        <mxCell id="1KkL3-F19yLGNeGOXNnM-7" style="edgeStyle=orthogonalEdgeStyle;rounded=0;orthogonalLoop=1;jettySize=auto;html=1;exitX=0.5;exitY=0;exitDx=0;exitDy=0;entryX=0;entryY=0.5;entryDx=0;entryDy=0;endArrow=ERmandOne;endFill=0;" edge="1" parent="1" source="xOeI5R_pEFMg7rDfnVps-28" target="xOeI5R_pEFMg7rDfnVps-22">
          <mxGeometry relative="1" as="geometry" />
        </mxCell>
        <mxCell id="xOeI5R_pEFMg7rDfnVps-28" value="prodaja" style="rhombus;whiteSpace=wrap;html=1;" vertex="1" parent="1">
          <mxGeometry x="250" y="1890" width="80" height="80" as="geometry" />
        </mxCell>
        <mxCell id="1KkL3-F19yLGNeGOXNnM-12" value="Obilazak" style="shape=ext;margin=3;double=1;whiteSpace=wrap;html=1;align=center;" vertex="1" parent="1">
          <mxGeometry x="30" y="1980" width="100" height="40" as="geometry" />
        </mxCell>
        <mxCell id="1KkL3-F19yLGNeGOXNnM-19" style="edgeStyle=orthogonalEdgeStyle;rounded=0;orthogonalLoop=1;jettySize=auto;html=1;exitX=0.5;exitY=0;exitDx=0;exitDy=0;entryX=0.5;entryY=1;entryDx=0;entryDy=0;endArrow=ERzeroToMany;endFill=0;" edge="1" parent="1" source="1KkL3-F19yLGNeGOXNnM-14" target="1KkL3-F19yLGNeGOXNnM-12">
          <mxGeometry relative="1" as="geometry" />
        </mxCell>
        <mxCell id="1KkL3-F19yLGNeGOXNnM-20" style="edgeStyle=orthogonalEdgeStyle;rounded=0;orthogonalLoop=1;jettySize=auto;html=1;exitX=1;exitY=0.5;exitDx=0;exitDy=0;entryX=0;entryY=0.75;entryDx=0;entryDy=0;endArrow=ERmandOne;endFill=0;" edge="1" parent="1" source="1KkL3-F19yLGNeGOXNnM-14" target="xOeI5R_pEFMg7rDfnVps-24">
          <mxGeometry relative="1" as="geometry">
            <Array as="points">
              <mxPoint x="290" y="2100" />
              <mxPoint x="290" y="2065" />
            </Array>
          </mxGeometry>
        </mxCell>
        <mxCell id="1KkL3-F19yLGNeGOXNnM-14" value="obilazi se" style="shape=rhombus;double=1;perimeter=rhombusPerimeter;whiteSpace=wrap;html=1;align=center;" vertex="1" parent="1">
          <mxGeometry x="20" y="2070" width="120" height="60" as="geometry" />
        </mxCell>
        <mxCell id="1KkL3-F19yLGNeGOXNnM-18" style="edgeStyle=orthogonalEdgeStyle;rounded=0;orthogonalLoop=1;jettySize=auto;html=1;exitX=0.5;exitY=1;exitDx=0;exitDy=0;entryX=0.5;entryY=0;entryDx=0;entryDy=0;endArrow=ERzeroToMany;endFill=0;" edge="1" parent="1" source="1KkL3-F19yLGNeGOXNnM-15" target="1KkL3-F19yLGNeGOXNnM-12">
          <mxGeometry relative="1" as="geometry" />
        </mxCell>
        <mxCell id="1KkL3-F19yLGNeGOXNnM-15" value="vodi obilazak" style="shape=rhombus;double=1;perimeter=rhombusPerimeter;whiteSpace=wrap;html=1;align=center;" vertex="1" parent="1">
          <mxGeometry x="20" y="1850" width="120" height="60" as="geometry" />
        </mxCell>
        <mxCell id="1KkL3-F19yLGNeGOXNnM-17" style="edgeStyle=orthogonalEdgeStyle;rounded=0;orthogonalLoop=1;jettySize=auto;html=1;exitX=0.5;exitY=1;exitDx=0;exitDy=0;entryX=1;entryY=0.5;entryDx=0;entryDy=0;endArrow=ERzeroToMany;endFill=0;jumpStyle=arc;" edge="1" parent="1" source="1KkL3-F19yLGNeGOXNnM-16" target="1KkL3-F19yLGNeGOXNnM-12">
          <mxGeometry relative="1" as="geometry">
            <Array as="points">
              <mxPoint x="400" y="2000" />
              <mxPoint x="130" y="2000" />
            </Array>
          </mxGeometry>
        </mxCell>
        <mxCell id="1KkL3-F19yLGNeGOXNnM-16" value="obilazi" style="shape=rhombus;double=1;perimeter=rhombusPerimeter;whiteSpace=wrap;html=1;align=center;" vertex="1" parent="1">
          <mxGeometry x="360" y="1900" width="80" height="60" as="geometry" />
        </mxCell>
        <mxCell id="1KkL3-F19yLGNeGOXNnM-52" style="rounded=0;orthogonalLoop=1;jettySize=auto;html=1;exitX=0;exitY=0.5;exitDx=0;exitDy=0;entryX=1;entryY=0.5;entryDx=0;entryDy=0;endArrow=none;endFill=0;" edge="1" parent="1" source="xOeI5R_pEFMg7rDfnVps-31" target="xOeI5R_pEFMg7rDfnVps-76">
          <mxGeometry relative="1" as="geometry" />
        </mxCell>
        <mxCell id="1KkL3-F19yLGNeGOXNnM-57" style="edgeStyle=orthogonalEdgeStyle;rounded=0;orthogonalLoop=1;jettySize=auto;html=1;exitX=0.5;exitY=0;exitDx=0;exitDy=0;entryX=0;entryY=0.5;entryDx=0;entryDy=0;endArrow=none;endFill=0;startArrow=ERzeroToMany;startFill=0;" edge="1" parent="1" source="xOeI5R_pEFMg7rDfnVps-31" target="1KkL3-F19yLGNeGOXNnM-55">
          <mxGeometry relative="1" as="geometry" />
        </mxCell>
        <mxCell id="xOeI5R_pEFMg7rDfnVps-31" value="Izvještaj" style="rounded=0;whiteSpace=wrap;html=1;" vertex="1" parent="1">
          <mxGeometry x="-240" y="1880" width="120" height="40" as="geometry" />
        </mxCell>
        <mxCell id="xOeI5R_pEFMg7rDfnVps-34" style="edgeStyle=orthogonalEdgeStyle;rounded=0;orthogonalLoop=1;jettySize=auto;html=1;entryX=0.5;entryY=1;entryDx=0;entryDy=0;endArrow=none;endFill=0;shape=link;" edge="1" parent="1" source="xOeI5R_pEFMg7rDfnVps-33" target="xOeI5R_pEFMg7rDfnVps-20">
          <mxGeometry relative="1" as="geometry" />
        </mxCell>
        <mxCell id="xOeI5R_pEFMg7rDfnVps-35" style="edgeStyle=orthogonalEdgeStyle;rounded=0;orthogonalLoop=1;jettySize=auto;html=1;endArrow=none;endFill=0;" edge="1" parent="1" source="xOeI5R_pEFMg7rDfnVps-33" target="xOeI5R_pEFMg7rDfnVps-21">
          <mxGeometry relative="1" as="geometry" />
        </mxCell>
        <mxCell id="xOeI5R_pEFMg7rDfnVps-33" value="d" style="ellipse;whiteSpace=wrap;html=1;aspect=fixed;" vertex="1" parent="1">
          <mxGeometry x="360" y="1590" width="20" height="20" as="geometry" />
        </mxCell>
        <mxCell id="1KkL3-F19yLGNeGOXNnM-24" value="" style="verticalLabelPosition=bottom;verticalAlign=top;html=1;shape=mxgraph.basic.arc;startAngle=0.3;endAngle=0.6950031212374308;" vertex="1" parent="1">
          <mxGeometry x="150" y="1610" width="40" height="40" as="geometry" />
        </mxCell>
        <mxCell id="xOeI5R_pEFMg7rDfnVps-38" style="edgeStyle=orthogonalEdgeStyle;rounded=0;orthogonalLoop=1;jettySize=auto;html=1;entryX=0.5;entryY=0;entryDx=0;entryDy=0;endArrow=none;endFill=0;exitX=0.5;exitY=1;exitDx=0;exitDy=0;" edge="1" parent="1" source="xOeI5R_pEFMg7rDfnVps-33" target="xOeI5R_pEFMg7rDfnVps-22">
          <mxGeometry relative="1" as="geometry">
            <mxPoint x="370" y="1650" as="sourcePoint" />
          </mxGeometry>
        </mxCell>
        <mxCell id="xOeI5R_pEFMg7rDfnVps-40" value="" style="verticalLabelPosition=bottom;verticalAlign=top;html=1;shape=mxgraph.basic.arc;startAngle=0.3;endAngle=0.6950031212374308;" vertex="1" parent="1">
          <mxGeometry x="630" y="1610" width="40" height="40" as="geometry" />
        </mxCell>
        <mxCell id="xOeI5R_pEFMg7rDfnVps-41" style="edgeStyle=orthogonalEdgeStyle;rounded=0;orthogonalLoop=1;jettySize=auto;html=1;exitX=1;exitY=0.5;exitDx=0;exitDy=0;entryX=0.5;entryY=0;entryDx=0;entryDy=0;endArrow=none;endFill=0;" edge="1" parent="1" source="xOeI5R_pEFMg7rDfnVps-33" target="xOeI5R_pEFMg7rDfnVps-23">
          <mxGeometry relative="1" as="geometry">
            <Array as="points">
              <mxPoint x="650" y="1600" />
            </Array>
          </mxGeometry>
        </mxCell>
        <mxCell id="xOeI5R_pEFMg7rDfnVps-42" value="idKorisnik" style="ellipse;whiteSpace=wrap;html=1;align=center;fontStyle=4;" vertex="1" parent="1">
          <mxGeometry x="170" y="1410" width="100" height="40" as="geometry" />
        </mxCell>
        <mxCell id="xOeI5R_pEFMg7rDfnVps-43" value="ime" style="ellipse;whiteSpace=wrap;html=1;align=center;" vertex="1" parent="1">
          <mxGeometry x="300" y="1380" width="100" height="40" as="geometry" />
        </mxCell>
        <mxCell id="xOeI5R_pEFMg7rDfnVps-52" style="rounded=0;orthogonalLoop=1;jettySize=auto;html=1;entryX=0.75;entryY=0;entryDx=0;entryDy=0;endArrow=none;endFill=0;" edge="1" parent="1" source="xOeI5R_pEFMg7rDfnVps-44" target="xOeI5R_pEFMg7rDfnVps-20">
          <mxGeometry relative="1" as="geometry" />
        </mxCell>
        <mxCell id="xOeI5R_pEFMg7rDfnVps-44" value="prezime" style="ellipse;whiteSpace=wrap;html=1;align=center;" vertex="1" parent="1">
          <mxGeometry x="410" y="1380" width="100" height="40" as="geometry" />
        </mxCell>
        <mxCell id="xOeI5R_pEFMg7rDfnVps-53" style="rounded=0;orthogonalLoop=1;jettySize=auto;html=1;entryX=1;entryY=0.25;entryDx=0;entryDy=0;endArrow=none;endFill=0;curved=0;" edge="1" parent="1" source="xOeI5R_pEFMg7rDfnVps-45" target="xOeI5R_pEFMg7rDfnVps-20">
          <mxGeometry relative="1" as="geometry" />
        </mxCell>
        <mxCell id="xOeI5R_pEFMg7rDfnVps-45" value="datumRod" style="ellipse;whiteSpace=wrap;html=1;align=center;" vertex="1" parent="1">
          <mxGeometry x="500" y="1410" width="100" height="40" as="geometry" />
        </mxCell>
        <mxCell id="1KkL3-F19yLGNeGOXNnM-29" style="rounded=0;orthogonalLoop=1;jettySize=auto;html=1;exitX=0;exitY=0.5;exitDx=0;exitDy=0;entryX=1;entryY=0.5;entryDx=0;entryDy=0;endArrow=none;endFill=0;" edge="1" parent="1" source="xOeI5R_pEFMg7rDfnVps-46" target="xOeI5R_pEFMg7rDfnVps-20">
          <mxGeometry relative="1" as="geometry" />
        </mxCell>
        <mxCell id="xOeI5R_pEFMg7rDfnVps-46" value="adresa" style="ellipse;whiteSpace=wrap;html=1;align=center;" vertex="1" parent="1">
          <mxGeometry x="530" y="1460" width="100" height="40" as="geometry" />
        </mxCell>
        <mxCell id="xOeI5R_pEFMg7rDfnVps-47" value="email" style="ellipse;whiteSpace=wrap;html=1;align=center;" vertex="1" parent="1">
          <mxGeometry x="160" y="1500" width="100" height="40" as="geometry" />
        </mxCell>
        <mxCell id="xOeI5R_pEFMg7rDfnVps-50" style="rounded=0;orthogonalLoop=1;jettySize=auto;html=1;endArrow=none;endFill=0;entryX=0.5;entryY=0;entryDx=0;entryDy=0;" edge="1" parent="1" source="xOeI5R_pEFMg7rDfnVps-43" target="xOeI5R_pEFMg7rDfnVps-20">
          <mxGeometry relative="1" as="geometry">
            <mxPoint x="359" y="1480" as="targetPoint" />
          </mxGeometry>
        </mxCell>
        <mxCell id="xOeI5R_pEFMg7rDfnVps-51" style="rounded=0;orthogonalLoop=1;jettySize=auto;html=1;endArrow=none;endFill=0;" edge="1" parent="1" source="xOeI5R_pEFMg7rDfnVps-42">
          <mxGeometry relative="1" as="geometry">
            <mxPoint x="327" y="1480" as="targetPoint" />
          </mxGeometry>
        </mxCell>
        <mxCell id="xOeI5R_pEFMg7rDfnVps-48" style="rounded=0;orthogonalLoop=1;jettySize=auto;html=1;endArrow=none;endFill=0;" edge="1" parent="1" source="xOeI5R_pEFMg7rDfnVps-47" target="xOeI5R_pEFMg7rDfnVps-20">
          <mxGeometry relative="1" as="geometry" />
        </mxCell>
        <mxCell id="1KkL3-F19yLGNeGOXNnM-28" value="" style="verticalLabelPosition=bottom;verticalAlign=top;html=1;shape=mxgraph.basic.arc;startAngle=0.3;endAngle=0.6950031212374308;" vertex="1" parent="1">
          <mxGeometry x="350" y="1610" width="40" height="40" as="geometry" />
        </mxCell>
        <mxCell id="xOeI5R_pEFMg7rDfnVps-55" value="OIB" style="ellipse;whiteSpace=wrap;html=1;align=center;fontStyle=4;" vertex="1" parent="1">
          <mxGeometry x="-60" y="1710" width="100" height="40" as="geometry" />
        </mxCell>
        <mxCell id="xOeI5R_pEFMg7rDfnVps-56" value="datumPocRad" style="ellipse;whiteSpace=wrap;html=1;align=center;" vertex="1" parent="1">
          <mxGeometry x="30" y="1590" width="100" height="40" as="geometry" />
        </mxCell>
        <mxCell id="xOeI5R_pEFMg7rDfnVps-69" style="rounded=0;orthogonalLoop=1;jettySize=auto;html=1;endArrow=none;endFill=0;entryX=0;entryY=0;entryDx=0;entryDy=0;" edge="1" parent="1" source="xOeI5R_pEFMg7rDfnVps-57" target="xOeI5R_pEFMg7rDfnVps-21">
          <mxGeometry relative="1" as="geometry">
            <mxPoint x="122" y="1700" as="targetPoint" />
          </mxGeometry>
        </mxCell>
        <mxCell id="xOeI5R_pEFMg7rDfnVps-57" value="datumKrajRad" style="ellipse;whiteSpace=wrap;html=1;align=center;" vertex="1" parent="1">
          <mxGeometry x="-50" y="1650" width="100" height="40" as="geometry" />
        </mxCell>
        <mxCell id="xOeI5R_pEFMg7rDfnVps-58" value="idNekretnina" style="ellipse;whiteSpace=wrap;html=1;align=center;fontStyle=4;" vertex="1" parent="1">
          <mxGeometry x="700" y="2010" width="100" height="40" as="geometry" />
        </mxCell>
        <mxCell id="xOeI5R_pEFMg7rDfnVps-60" value="kvadratura" style="ellipse;whiteSpace=wrap;html=1;align=center;" vertex="1" parent="1">
          <mxGeometry x="680" y="2110" width="100" height="40" as="geometry" />
        </mxCell>
        <mxCell id="xOeI5R_pEFMg7rDfnVps-61" value="adresa" style="ellipse;whiteSpace=wrap;html=1;align=center;" vertex="1" parent="1">
          <mxGeometry x="700" y="2060" width="100" height="40" as="geometry" />
        </mxCell>
        <mxCell id="xOeI5R_pEFMg7rDfnVps-63" value="cijena" style="ellipse;whiteSpace=wrap;html=1;align=center;" vertex="1" parent="1">
          <mxGeometry x="690" y="1960" width="100" height="40" as="geometry" />
        </mxCell>
        <mxCell id="xOeI5R_pEFMg7rDfnVps-65" value="Slika" style="rounded=0;whiteSpace=wrap;html=1;" vertex="1" parent="1">
          <mxGeometry x="825" y="3130" width="120" height="60" as="geometry" />
        </mxCell>
        <mxCell id="1KkL3-F19yLGNeGOXNnM-44" style="rounded=0;orthogonalLoop=1;jettySize=auto;html=1;exitX=1;exitY=0.75;exitDx=0;exitDy=0;entryX=0;entryY=0;entryDx=0;entryDy=0;endArrow=none;endFill=0;" edge="1" parent="1" source="xOeI5R_pEFMg7rDfnVps-67" target="1KkL3-F19yLGNeGOXNnM-41">
          <mxGeometry relative="1" as="geometry" />
        </mxCell>
        <mxCell id="1KkL3-F19yLGNeGOXNnM-45" style="rounded=0;orthogonalLoop=1;jettySize=auto;html=1;exitX=1;exitY=0.5;exitDx=0;exitDy=0;entryX=0;entryY=0.5;entryDx=0;entryDy=0;endArrow=none;endFill=0;" edge="1" parent="1" source="xOeI5R_pEFMg7rDfnVps-67" target="1KkL3-F19yLGNeGOXNnM-40">
          <mxGeometry relative="1" as="geometry" />
        </mxCell>
        <mxCell id="xOeI5R_pEFMg7rDfnVps-67" value="Slika" style="shape=ext;margin=3;double=1;whiteSpace=wrap;html=1;align=center;" vertex="1" parent="1">
          <mxGeometry x="470" y="2260" width="100" height="40" as="geometry" />
        </mxCell>
        <mxCell id="1KkL3-F19yLGNeGOXNnM-39" style="edgeStyle=orthogonalEdgeStyle;rounded=0;orthogonalLoop=1;jettySize=auto;html=1;exitX=0.5;exitY=1;exitDx=0;exitDy=0;entryX=0.5;entryY=0;entryDx=0;entryDy=0;endArrow=ERzeroToMany;endFill=0;" edge="1" parent="1" source="1KkL3-F19yLGNeGOXNnM-46" target="xOeI5R_pEFMg7rDfnVps-67">
          <mxGeometry relative="1" as="geometry">
            <mxPoint x="515" y="2210" as="sourcePoint" />
          </mxGeometry>
        </mxCell>
        <mxCell id="xOeI5R_pEFMg7rDfnVps-68" style="rounded=0;orthogonalLoop=1;jettySize=auto;html=1;entryX=0.333;entryY=0;entryDx=0;entryDy=0;entryPerimeter=0;endArrow=none;endFill=0;" edge="1" parent="1" source="xOeI5R_pEFMg7rDfnVps-56" target="xOeI5R_pEFMg7rDfnVps-21">
          <mxGeometry relative="1" as="geometry" />
        </mxCell>
        <mxCell id="1KkL3-F19yLGNeGOXNnM-40" value="idNekretnina" style="ellipse;whiteSpace=wrap;html=1;align=center;" vertex="1" parent="1">
          <mxGeometry x="630" y="2260" width="100" height="40" as="geometry" />
        </mxCell>
        <mxCell id="xOeI5R_pEFMg7rDfnVps-70" style="rounded=0;orthogonalLoop=1;jettySize=auto;html=1;endArrow=none;endFill=0;strokeColor=default;align=center;verticalAlign=middle;fontFamily=Helvetica;fontSize=11;fontColor=default;labelBackgroundColor=default;entryX=0;entryY=0.5;entryDx=0;entryDy=0;" edge="1" parent="1" source="xOeI5R_pEFMg7rDfnVps-55" target="xOeI5R_pEFMg7rDfnVps-21">
          <mxGeometry relative="1" as="geometry">
            <mxPoint x="110" y="1710" as="targetPoint" />
          </mxGeometry>
        </mxCell>
        <mxCell id="1KkL3-F19yLGNeGOXNnM-41" value="slika" style="ellipse;whiteSpace=wrap;html=1;align=center;" vertex="1" parent="1">
          <mxGeometry x="620" y="2310" width="100" height="40" as="geometry" />
        </mxCell>
        <mxCell id="1KkL3-F19yLGNeGOXNnM-43" style="rounded=0;orthogonalLoop=1;jettySize=auto;html=1;exitX=0.5;exitY=0;exitDx=0;exitDy=0;entryX=0.75;entryY=1;entryDx=0;entryDy=0;endArrow=none;endFill=0;" edge="1" parent="1" source="1KkL3-F19yLGNeGOXNnM-42" target="xOeI5R_pEFMg7rDfnVps-67">
          <mxGeometry relative="1" as="geometry">
            <Array as="points" />
          </mxGeometry>
        </mxCell>
        <mxCell id="1KkL3-F19yLGNeGOXNnM-42" value="opis" style="ellipse;whiteSpace=wrap;html=1;align=center;" vertex="1" parent="1">
          <mxGeometry x="530" y="2350" width="100" height="40" as="geometry" />
        </mxCell>
        <mxCell id="1KkL3-F19yLGNeGOXNnM-46" value="sadržava" style="shape=rhombus;perimeter=rhombusPerimeter;whiteSpace=wrap;html=1;align=center;" vertex="1" parent="1">
          <mxGeometry x="480" y="2140" width="80" height="70" as="geometry" />
        </mxCell>
        <mxCell id="1KkL3-F19yLGNeGOXNnM-49" style="rounded=0;orthogonalLoop=1;jettySize=auto;html=1;exitX=0;exitY=1;exitDx=0;exitDy=0;entryX=1;entryY=0;entryDx=0;entryDy=0;endArrow=none;endFill=0;" edge="1" parent="1" source="1KkL3-F19yLGNeGOXNnM-48" target="xOeI5R_pEFMg7rDfnVps-67">
          <mxGeometry relative="1" as="geometry" />
        </mxCell>
        <mxCell id="1KkL3-F19yLGNeGOXNnM-48" value="&lt;u&gt;idSlika&lt;/u&gt;" style="ellipse;whiteSpace=wrap;html=1;align=center;" vertex="1" parent="1">
          <mxGeometry x="570" y="2210" width="100" height="40" as="geometry" />
        </mxCell>
        <mxCell id="xOeI5R_pEFMg7rDfnVps-80" style="rounded=0;orthogonalLoop=1;jettySize=auto;html=1;entryX=0.25;entryY=1;entryDx=0;entryDy=0;endArrow=none;endFill=0;" edge="1" parent="1" source="xOeI5R_pEFMg7rDfnVps-71" target="xOeI5R_pEFMg7rDfnVps-31">
          <mxGeometry relative="1" as="geometry" />
        </mxCell>
        <mxCell id="xOeI5R_pEFMg7rDfnVps-71" value="datumPoc" style="ellipse;whiteSpace=wrap;html=1;align=center;" vertex="1" parent="1">
          <mxGeometry x="-370" y="1970" width="100" height="40" as="geometry" />
        </mxCell>
        <mxCell id="xOeI5R_pEFMg7rDfnVps-79" style="rounded=0;orthogonalLoop=1;jettySize=auto;html=1;entryX=0.5;entryY=1;entryDx=0;entryDy=0;endArrow=none;endFill=0;" edge="1" parent="1" source="xOeI5R_pEFMg7rDfnVps-72" target="xOeI5R_pEFMg7rDfnVps-31">
          <mxGeometry relative="1" as="geometry" />
        </mxCell>
        <mxCell id="xOeI5R_pEFMg7rDfnVps-72" value="datumKraj" style="ellipse;whiteSpace=wrap;html=1;align=center;" vertex="1" parent="1">
          <mxGeometry x="-250" y="1990" width="100" height="40" as="geometry" />
        </mxCell>
        <mxCell id="xOeI5R_pEFMg7rDfnVps-78" style="rounded=0;orthogonalLoop=1;jettySize=auto;html=1;entryX=0.75;entryY=1;entryDx=0;entryDy=0;endArrow=none;endFill=0;" edge="1" parent="1" source="xOeI5R_pEFMg7rDfnVps-73" target="xOeI5R_pEFMg7rDfnVps-31">
          <mxGeometry relative="1" as="geometry" />
        </mxCell>
        <mxCell id="xOeI5R_pEFMg7rDfnVps-73" value="dobit" style="ellipse;whiteSpace=wrap;html=1;align=center;" vertex="1" parent="1">
          <mxGeometry x="-140" y="1990" width="100" height="40" as="geometry" />
        </mxCell>
        <mxCell id="xOeI5R_pEFMg7rDfnVps-77" style="rounded=0;orthogonalLoop=1;jettySize=auto;html=1;entryX=1;entryY=0.75;entryDx=0;entryDy=0;endArrow=none;endFill=0;" edge="1" parent="1" source="xOeI5R_pEFMg7rDfnVps-74" target="xOeI5R_pEFMg7rDfnVps-31">
          <mxGeometry relative="1" as="geometry" />
        </mxCell>
        <mxCell id="xOeI5R_pEFMg7rDfnVps-74" value="prihod" style="ellipse;whiteSpace=wrap;html=1;align=center;" vertex="1" parent="1">
          <mxGeometry x="-90" y="1930" width="100" height="40" as="geometry" />
        </mxCell>
        <mxCell id="1KkL3-F19yLGNeGOXNnM-51" style="rounded=0;orthogonalLoop=1;jettySize=auto;html=1;exitX=1;exitY=1;exitDx=0;exitDy=0;entryX=0;entryY=0;entryDx=0;entryDy=0;endArrow=none;endFill=0;" edge="1" parent="1" source="xOeI5R_pEFMg7rDfnVps-75" target="xOeI5R_pEFMg7rDfnVps-31">
          <mxGeometry relative="1" as="geometry" />
        </mxCell>
        <mxCell id="xOeI5R_pEFMg7rDfnVps-75" value="vrstaIzvještaj" style="ellipse;whiteSpace=wrap;html=1;align=center;" vertex="1" parent="1">
          <mxGeometry x="-380" y="1830" width="100" height="40" as="geometry" />
        </mxCell>
        <mxCell id="xOeI5R_pEFMg7rDfnVps-76" value="opis" style="ellipse;whiteSpace=wrap;html=1;align=center;" vertex="1" parent="1">
          <mxGeometry x="-410" y="1900" width="100" height="40" as="geometry" />
        </mxCell>
        <mxCell id="1KkL3-F19yLGNeGOXNnM-55" value="stvara" style="shape=rhombus;perimeter=rhombusPerimeter;whiteSpace=wrap;html=1;align=center;" vertex="1" parent="1">
          <mxGeometry x="-100" y="1780" width="120" height="60" as="geometry" />
        </mxCell>
        <mxCell id="1KkL3-F19yLGNeGOXNnM-58" value="lozinka" style="ellipse;whiteSpace=wrap;html=1;align=center;" vertex="1" parent="1">
          <mxGeometry x="530" y="1520" width="100" height="40" as="geometry" />
        </mxCell>
        <mxCell id="xOeI5R_pEFMg7rDfnVps-83" style="rounded=0;orthogonalLoop=1;jettySize=auto;html=1;entryX=0.25;entryY=0;entryDx=0;entryDy=0;endArrow=none;endFill=0;" edge="1" parent="1" source="xOeI5R_pEFMg7rDfnVps-82" target="xOeI5R_pEFMg7rDfnVps-31">
          <mxGeometry relative="1" as="geometry" />
        </mxCell>
        <mxCell id="xOeI5R_pEFMg7rDfnVps-82" value="idIzvještaj" style="ellipse;whiteSpace=wrap;html=1;align=center;fontStyle=4;" vertex="1" parent="1">
          <mxGeometry x="-310" y="1760" width="100" height="40" as="geometry" />
        </mxCell>
        <mxCell id="xOeI5R_pEFMg7rDfnVps-85" style="rounded=0;orthogonalLoop=1;jettySize=auto;html=1;exitX=0.5;exitY=0;exitDx=0;exitDy=0;entryX=0.5;entryY=1;entryDx=0;entryDy=0;endArrow=none;endFill=0;" edge="1" parent="1" source="xOeI5R_pEFMg7rDfnVps-84" target="xOeI5R_pEFMg7rDfnVps-24">
          <mxGeometry relative="1" as="geometry" />
        </mxCell>
        <mxCell id="xOeI5R_pEFMg7rDfnVps-84" value="opis" style="ellipse;whiteSpace=wrap;html=1;align=center;" vertex="1" parent="1">
          <mxGeometry x="550" y="2120" width="100" height="40" as="geometry" />
        </mxCell>
        <mxCell id="xOeI5R_pEFMg7rDfnVps-87" style="rounded=0;orthogonalLoop=1;jettySize=auto;html=1;entryX=0;entryY=1;entryDx=0;entryDy=0;endArrow=none;endFill=0;" edge="1" parent="1" source="xOeI5R_pEFMg7rDfnVps-86" target="1KkL3-F19yLGNeGOXNnM-12">
          <mxGeometry relative="1" as="geometry" />
        </mxCell>
        <mxCell id="xOeI5R_pEFMg7rDfnVps-86" value="datumObilazak" style="ellipse;whiteSpace=wrap;html=1;align=center;" vertex="1" parent="1">
          <mxGeometry x="-100" y="2060" width="100" height="40" as="geometry" />
        </mxCell>
      </root>
    </mxGraphModel>
  </diagram>
</mxfile>
